<?xml version="1.0" encoding="utf-8"?>
<!-- Generator: Adobe Illustrator 23.0.2, SVG Export Plug-In . SVG Version: 6.00 Build 0)  -->
<svg version="1.1" id="Layer_1" xmlns="http://www.w3.org/2000/svg" xmlns:xlink="http://www.w3.org/1999/xlink" x="0px" y="0px"
	 width="197.3px" height="170px" viewBox="0 0 197.3 170" style="enable-background:new 0 0 197.3 170;" xml:space="preserve">
<style type="text/css">
	.st0{clip-path:url(#SVGID_2_);}
	.st1{fill:url(#SVGID_3_);}
	.st2{clip-path:url(#SVGID_5_);}
	.st3{fill:url(#SVGID_6_);}
	.st4{fill:#32325D;}
</style>
<title>logo heart</title>
<g>
	<defs>
		<path id="SVGID_1_" d="M177.9,17.6L177.9,17.6 M99.4,17.5c21.4,21.6,21.3,56.4-0.1,77.9c-2.2,2.2-5,3.3-6.7,5.7
			c-7.3,10.3-0.1,16.7,8.5,25.5l16.5,17c4.6,4.5,5.4,7.5,7.1,6L178,96.3c21.7-21.8,21.5-57-0.3-78.7C156.1-3.9,121.1-3.9,99.4,17.5"
			/>
	</defs>
	<clipPath id="SVGID_2_">
		<use xlink:href="#SVGID_1_"  style="overflow:visible;"/>
	</clipPath>
	<g class="st0">
		
			<linearGradient id="SVGID_3_" gradientUnits="userSpaceOnUse" x1="-315.6207" y1="527.2502" x2="-314.6207" y2="527.2502" gradientTransform="matrix(124.8967 10.8831 10.8831 -124.8967 33784.2031 69359.5234)">
			<stop  offset="0" style="stop-color:#D3368A"/>
			<stop  offset="0" style="stop-color:#D3368A"/>
			<stop  offset="0.28" style="stop-color:#DD4C7E"/>
			<stop  offset="0.68" style="stop-color:#EA5C7B"/>
			<stop  offset="1" style="stop-color:#FF7575"/>
		</linearGradient>
		<polygon class="st1" points="72.4,150 86.2,-8.5 212.8,2.5 199,161 		"/>
	</g>
</g>
<g>
	<defs>
		<path id="SVGID_4_" d="M20.9,17.2C-0.7,39-0.7,74.2,21,96l26.2-26.2l-0.1-0.1c-7.1-7.4-6.9-19.2,0.5-26.3c7.2-6.9,18.6-6.9,25.8,0
			l0.1,0.1L99.1,18l0.7-0.7l-0.2-0.2C77.9-4.6,42.8-4.6,21.1,17C21,17.1,21,17.1,20.9,17.2"/>
	</defs>
	<clipPath id="SVGID_5_">
		<use xlink:href="#SVGID_4_"  style="overflow:visible;"/>
	</clipPath>
	<g class="st2">
		
			<linearGradient id="SVGID_6_" gradientUnits="userSpaceOnUse" x1="-314.6421" y1="525.804" x2="-313.6421" y2="525.804" gradientTransform="matrix(91.9797 7.5621 7.5621 -91.9797 24969.6426 50787.4141)">
			<stop  offset="0" style="stop-color:#038EF5"/>
			<stop  offset="0.17" style="stop-color:#038EF5"/>
			<stop  offset="0.38" style="stop-color:#4570FC"/>
			<stop  offset="1" style="stop-color:#4869FD"/>
		</linearGradient>
		<polygon class="st3" points="-8,94.9 0.4,-6.8 107,2 98.6,103.6 		"/>
	</g>
</g>
<g>
	<path class="st4" d="M92.9,116.3c-3.7-3.9-3.6-10,0.2-13.8c0.1-0.2,0.3-0.3,0.5-0.4c3.3-3,6.4-6.2,9.2-9.7
		c17.6-21.1,17.3-51.8-0.7-72.6c-0.8-0.9-1.7-1.8-2.4-2.5L73.5,43.4c7.1,7.4,6.9,19.2-0.5,26.3c-7.2,6.9-18.6,6.9-25.8,0L21,96
		l69.4,69.3c5.1,5.1,13.4,5.1,18.5,0l16.5-16.5"/>
</g>
</svg>
