<svg id="Layer_1" data-name="Layer 1" xmlns="http://www.w3.org/2000/svg" xmlns:xlink="http://www.w3.org/1999/xlink" viewBox="0 0 181 58"><defs><style>.cls-1{fill:none;}.cls-2{fill:#32325d;}.cls-3{clip-path:url(#clip-path);}.cls-4{fill:url(#linear-gradient);}.cls-5{clip-path:url(#clip-path-2);}.cls-6{fill:url(#linear-gradient-2);}</style><clipPath id="clip-path"><path class="cls-1" d="M39.1,13.84h0m-17.66,0a12.44,12.44,0,0,1,0,17.53c-.49.49-1.12.74-1.5,1.28-1.65,2.32,0,3.76,1.91,5.74l3.71,3.83c1,1,1.22,1.68,1.6,1.35l12-12A12.52,12.52,0,0,0,21.44,13.82"/></clipPath><linearGradient id="linear-gradient" x1="1272.83" y1="309.42" x2="1273.05" y2="309.42" gradientTransform="translate(38824.28 -159559.97) rotate(90) scale(125.37)" gradientUnits="userSpaceOnUse"><stop offset="0" stop-color="#d3368a"/><stop offset="0" stop-color="#d3368a"/><stop offset="0.28" stop-color="#dd4c7e"/><stop offset="0.68" stop-color="#ea5c7b"/><stop offset="1" stop-color="#ff7575"/></linearGradient><clipPath id="clip-path-2"><path class="cls-1" d="M3.77,13.75a12.57,12.57,0,0,0,0,17.73l5.9-5.89,0,0a4.19,4.19,0,0,1,5.92-5.92l0,0,5.76-5.74.16-.16-.05,0a12.49,12.49,0,0,0-17.71,0"/></clipPath><linearGradient id="linear-gradient-2" x1="1269.75" y1="309.14" x2="1269.98" y2="309.14" gradientTransform="translate(28542.15 -117178.72) rotate(90) scale(92.29)" gradientUnits="userSpaceOnUse"><stop offset="0" stop-color="#038ef5"/><stop offset="0.17" stop-color="#038ef5"/><stop offset="0.38" stop-color="#4570fc"/><stop offset="1" stop-color="#4869fd"/></linearGradient></defs><title>181x58</title><path class="cls-2" d="M90.75,25.81A9,9,0,0,0,84.25,23a9.82,9.82,0,0,0-9.41,10.17,9.82,9.82,0,0,0,9.41,10.17,9,9,0,0,0,6.5-2.83v2a.5.5,0,0,0,.47.5h3.31a.5.5,0,0,0,.5-.47V23.72a.5.5,0,0,0-.47-.5H91.25a.5.5,0,0,0-.5.48v2.11ZM85.1,39.2a5.85,5.85,0,0,1-5.65-6.05,5.66,5.66,0,0,1,11.3-.54v.54A5.84,5.84,0,0,1,85.1,39.2"/><path class="cls-2" d="M116.2,43.3h3.29a.5.5,0,0,0,.5-.47V24a.5.5,0,0,0-.48-.49H116.2a.49.49,0,0,0-.49.47V42.8a.45.45,0,0,0,.45.5Z"/><path class="cls-2" d="M107.14,39.14c-1.29,0-2.1-.75-2.1-3V27.1h5.36a.5.5,0,0,0,.49-.48v-2.9a.5.5,0,0,0-.47-.5H105V18.48a.48.48,0,0,0-.47-.5h-.09l-3.29.52a.48.48,0,0,0-.4.49v4.23h-2a.5.5,0,0,0-.49.48v2.9a.5.5,0,0,0,.47.5h2.07v9.09c0,3.87.74,7.13,5.65,7.13a9.69,9.69,0,0,0,4.27-1,.5.5,0,0,0,.25-.58l-.88-2.93a.48.48,0,0,0-.58-.34s-.07,0-.11.05a8.17,8.17,0,0,1-2.25.61"/><path class="cls-2" d="M179.94,38.82a.46.46,0,0,0-.59-.31.15.15,0,0,0-.09,0,5.23,5.23,0,0,1-2.25.65c-1.28,0-2.09-.74-2.09-2.94V27.1h5.36a.5.5,0,0,0,.49-.48v-2.9a.5.5,0,0,0-.47-.5h-5.4V18.48a.49.49,0,0,0-.48-.5h-.09l-3.28.52a.49.49,0,0,0-.41.49v4.23h-2a.51.51,0,0,0-.5.48v2.9a.51.51,0,0,0,.48.5h2.07v9.09c0,3.87.74,7.13,5.64,7.13a10.16,10.16,0,0,0,4.3-1,.5.5,0,0,0,.25-.58Z"/><path class="cls-2" d="M157.77,23.31a9.45,9.45,0,0,0-7,3V24a.49.49,0,0,0-.47-.49H147a.49.49,0,0,0-.49.47V42.83a.49.49,0,0,0,.47.49h3.31a.49.49,0,0,0,.49-.47v-8c0-5.34,2.46-7.54,5.34-7.54,3.33,0,4.18,3.08,4.18,4.79V42.83a.49.49,0,0,0,.47.49h3.56a.5.5,0,0,0,.5-.47V30.58c0-3.39-2-7.27-7-7.27"/><path class="cls-2" d="M118,14.83a3,3,0,1,1-3,3,3,3,0,0,1,3-3"/><path class="cls-2" d="M64.87,15H54.11a.49.49,0,0,0-.49.47V42.83a.49.49,0,0,0,.47.49h3.76a.49.49,0,0,0,.49-.47V33.49h5.81c5.65,0,9.48-3.87,9.48-9.64A8.68,8.68,0,0,0,65.12,15ZM64,29.17h-5.7V19.26H64a4.79,4.79,0,0,1,5.13,4.44,3.08,3.08,0,0,1,0,.43,5.34,5.34,0,0,1-5.15,5Z"/><path class="cls-2" d="M142.58,34h-15a.36.36,0,0,0-.36.38v.07a6,6,0,0,0,5.81,5.33,5.76,5.76,0,0,0,5.58-3.13.38.38,0,0,1,.41-.18l2.92.63a.39.39,0,0,1,.3.45s0,.05,0,.07c-1.66,3.8-5,5.69-9.18,5.69a9.86,9.86,0,0,1-9.9-10.21,9.93,9.93,0,0,1,10.06-10.31c5.22,0,9.52,4,9.72,9.83v1a.35.35,0,0,1-.36.34m-14.79-2.91h10.49a.36.36,0,0,0,.36-.38.15.15,0,0,0,0-.09,5.35,5.35,0,0,0-5.42-4.27,6,6,0,0,0-5.81,4.27.37.37,0,0,0,.27.45l.13,0"/><g class="cls-3"><rect class="cls-4" x="13.24" y="12.74" width="35.81" height="28.6" transform="matrix(0.09, -1, 1, 0.09, 1.51, 55.72)"/></g><g class="cls-5"><rect class="cls-6" x="-1.27" y="8.73" width="22.95" height="24.08" transform="translate(-11.23 29.5) rotate(-86)"/></g><path class="cls-2" d="M20,36.05A2.21,2.21,0,0,1,20,33a.29.29,0,0,1,.11-.09,17.83,17.83,0,0,0,2.07-2.19A12.59,12.59,0,0,0,22,14.34c-.18-.21-.38-.41-.54-.57l-5.89,5.88a4.19,4.19,0,0,1-5.92,5.92l-5.9,5.91,15.62,15.6a3,3,0,0,0,4.17,0l3.71-3.71"/></svg>